<?xml version="1.0" encoding="utf-8"?>
<!-- Generator: Adobe Illustrator 24.1.0, SVG Export Plug-In . SVG Version: 6.00 Build 0)  -->
<svg version="1.1" xmlns="http://www.w3.org/2000/svg" xmlns:xlink="http://www.w3.org/1999/xlink" x="0px" y="0px"
	 viewBox="0 0 1200 351.2" style="enable-background:new 0 0 1200 351.2;" xml:space="preserve">
<style type="text/css">
	.st0{fill:#F7F7F7;}
</style>
<g id="_x2014_ÎÓÈ_x5F_1">
	<rect class="st0" width="1200" height="351.2"/>
</g>
<g id="_x2014_ÎÓÈ_x5F_2">
	<g>
		<path d="M752.1,294.8c-0.2,0-0.4-0.1-0.5-0.2c-16.9-10.7-31.9-23.9-44.5-39.1c-10.4-12.6-29.8-36.1-35.7-70.9
			c-5.5-32.7-1.3-81.7,18.2-87.5c15.9-4.7,33,21.9,52.7,52.7c2.9,4.6,6,9.3,9.1,14.1c-0.4-5.8-0.1-11.6,0.8-17.5
			c1.4-8.5,5.7-34.3,24.8-41.5c15.2-5.7,35.6,2.3,51.2,20c2.9-3.8,6.1-7.2,9.4-10.1c-5.1-22.4-15.3-31.6-24.4-35.1
			c-18.1-7-43.7,3.5-63.8,26.2c-0.2,0.2-0.4,0.4-0.7,0.3c-0.3,0-0.6-0.1-0.7-0.3c-0.3-0.3-30.8-33.8-56.9-26.3
			c-9.9,2.8-18.8,11.3-25.2,23.7c-11.6,22.8-12,53-1.1,82.8c0.1,0.3,0.1,0.6-0.1,0.9c-0.2,0.3-0.5,0.4-0.8,0.4L1,187.6
			c-0.6,0-1-0.4-1-1c0-0.6,0.4-1,1-1l661.5-0.3c-10.6-29.9-10-60.1,1.7-83.1c6.6-12.9,16-21.7,26.4-24.7
			c25.2-7.2,53.1,20.8,58.2,26.1C769.3,81,795.4,70.6,814,77.8c9.4,3.6,20,13,25.4,35.5c12-10,25.7-14.4,37-11.1
			c22.9,6.6,28.2,41.7,24.7,64.5c-4.8,31.1-33,67.2-65.8,69.2c-6.8,0.4-13.3-0.7-19.7-3.2c-4.4,6.4-9.1,12.5-14,18.1
			c11.7,11.7,22.8,20.7,29.5,25.8c25.5-16.6,45.8-38.7,58.6-64.1c4.2-8.3,7.7-17.2,10.4-26.2c0.1-0.4,0.5-0.7,1-0.7h298
			c0.6,0,1,0.4,1,1c0,0.6-0.4,1-1,1H901.7c-2.7,8.9-6.2,17.6-10.3,25.8c-13.1,25.9-33.8,48.5-59.9,65.3c-0.4,0.2-0.8,0.2-1.1,0
			c-6.7-5-18-14.2-30.1-26.3c-17.3,19.7-35.8,34.1-47.6,42.3C752.5,294.8,752.3,294.8,752.1,294.8z M693.3,98.7
			c-1.1,0-2.1,0.2-3.2,0.5c-18.1,5.4-22.1,54.1-16.8,85.2c5.8,34.2,24.2,56.6,35.2,69.9c12.3,14.9,26.9,27.8,43.5,38.4
			c11.7-8.2,29.9-22.4,46.7-41.7c-20.8-21.1-43.2-50.7-47-82.8c-3.9-5.8-7.6-11.6-11.2-17.2C722.7,123,707.1,98.7,693.3,98.7z
			 M754.4,172c5,30,26.1,57.5,45.7,77.4c4.7-5.4,9.2-11.2,13.5-17.4C791.1,222.5,771.5,197.5,754.4,172z M816.7,231.1
			c5.9,2.2,12.1,3.3,18.4,2.9c31.8-1.9,59.3-37.2,64-67.5c3.3-21.4-1.8-56-23.3-62.3c-10.9-3.2-24.2,1.3-35.9,11.3
			c2.1,9.9,3.3,22.3,3.1,37.6C842.4,182.9,831.3,209.2,816.7,231.1z M753.7,167.4c17.6,26.5,37.9,53.3,61,62.9
			c14.6-21.7,25.7-47.7,26.2-77.3c0.3-14.7-0.8-26.5-2.8-36.1c-3.2,2.9-6.3,6.3-9.1,10.1c-0.2,0.2-0.5,0.4-0.8,0.4
			c-0.3,0-0.6-0.1-0.8-0.3c-15.1-17.7-35.1-25.9-49.8-20.3c-18,6.8-22.1,31.8-23.5,40C753.1,153.7,753,160.6,753.7,167.4z"/>
	</g>
</g>
</svg>
